<svg xmlns="http://www.w3.org/2000/svg" viewBox="0 0 41 26" width="41" height="26"><rect width="41" height="26" rx="3" ry="3" fill="#dadada"/><path fill="#404040" d="M0 3.62h41v5H0z"/><path fill="#fff" d="M3 10.62h26v5H3z"/><path fill="#f2f2f2" d="M29 10.62h9v5h-9z"/><path d="M31.59 14.5v-1.79h-.22v-.45H32v2.24zM32.83 12.91a.67.67 0 0 1 1.34 0 .58.58 0 0 1-.17.4l-.62.74h.79v.45h-1.34v-.42l.81-1a.27.27 0 0 0 .08-.18.23.23 0 1 0-.45 0h-.44zM35.71 13.38a.63.63 0 0 1 .17.45.68.68 0 0 1-1.35 0H35a.23.23 0 1 0 .45 0 .22.22 0 0 0-.22-.23H35v-.45h.23a.22.22 0 0 0 .22-.22.22.22 0 0 0-.22-.23.23.23 0 0 0-.23.23h-.45a.68.68 0 0 1 .68-.67.67.67 0 0 1 .67.67.68.68 0 0 1-.19.45z" fill="#515151"/><path d="M6.15 20a.63.63 0 0 1-.62-.63v-.87a.63.63 0 1 1 1.25 0v.87a.63.63 0 0 1-.63.63zm0-.42a.21.21 0 0 0 .21-.21v-.87a.2.2 0 0 0-.2-.21.21.21 0 0 0-.21.21v.87a.2.2 0 0 0 .2.23zM7.82 20a.63.63 0 0 1-.62-.63v-.87a.63.63 0 1 1 1.25 0v.87a.63.63 0 0 1-.63.63zm0-.42a.21.21 0 0 0 .18-.19v-.87a.21.21 0 1 0-.42 0v.87a.21.21 0 0 0 .24.21zM9.49 20a.63.63 0 0 1-.63-.63v-.87a.63.63 0 0 1 .63-.63.63.63 0 0 1 .63.63v.87a.63.63 0 0 1-.63.63zm0-.42a.21.21 0 0 0 .21-.21v-.87a.21.21 0 0 0-.21-.21.21.21 0 0 0-.21.21v.87a.21.21 0 0 0 .21.23zM11.16 20a.63.63 0 0 1-.63-.63v-.87a.63.63 0 0 1 .63-.63.63.63 0 0 1 .63.63v.87a.63.63 0 0 1-.63.63zm0-.42a.21.21 0 0 0 .21-.21v-.87a.21.21 0 0 0-.21-.21.21.21 0 0 0-.21.21v.87a.21.21 0 0 0 .21.23zM14.05 20a.63.63 0 0 1-.63-.63v-.87a.63.63 0 0 1 .63-.63.63.63 0 0 1 .63.63v.87a.63.63 0 0 1-.63.63zm0-.42a.21.21 0 0 0 .21-.21v-.87a.21.21 0 0 0-.21-.21.21.21 0 0 0-.21.21v.87a.21.21 0 0 0 .21.23zM15.72 20a.63.63 0 0 1-.63-.63v-.87a.63.63 0 0 1 .63-.63.63.63 0 0 1 .63.63v.87a.63.63 0 0 1-.63.63zm0-.42a.21.21 0 0 0 .21-.21v-.87a.21.21 0 0 0-.21-.21.21.21 0 0 0-.21.21v.87a.21.21 0 0 0 .21.23zM17.38 20a.63.63 0 0 1-.62-.63v-.87a.63.63 0 1 1 1.25 0v.87a.63.63 0 0 1-.63.63zm0-.42a.21.21 0 0 0 .21-.21v-.87a.2.2 0 0 0-.2-.21.21.21 0 0 0-.21.21v.87a.2.2 0 0 0 .2.23zM19.05 20a.63.63 0 0 1-.62-.63v-.87a.63.63 0 1 1 1.25 0v.87a.63.63 0 0 1-.63.63zm0-.42a.21.21 0 0 0 .21-.21v-.87a.21.21 0 0 0-.21-.21.21.21 0 0 0-.21.21v.87a.21.21 0 0 0 .21.23zM21.94 20a.63.63 0 0 1-.62-.63v-.87a.63.63 0 1 1 1.25 0v.87a.63.63 0 0 1-.63.63zm0-.42a.21.21 0 0 0 .21-.21v-.87a.2.2 0 0 0-.2-.21.21.21 0 0 0-.21.21v.87a.2.2 0 0 0 .2.23zM23.61 20a.63.63 0 0 1-.62-.63v-.87a.63.63 0 1 1 1.25 0v.87a.63.63 0 0 1-.63.63zm0-.42a.21.21 0 0 0 .21-.21v-.87a.21.21 0 0 0-.21-.21.21.21 0 0 0-.21.21v.87a.21.21 0 0 0 .21.23zM25.28 20a.63.63 0 0 1-.62-.63v-.87a.63.63 0 1 1 1.25 0v.87a.63.63 0 0 1-.63.63zm0-.42a.21.21 0 0 0 .21-.21v-.87a.21.21 0 1 0-.42 0v.87a.21.21 0 0 0 .21.23zM27 20a.63.63 0 0 1-.63-.63v-.87a.63.63 0 0 1 .63-.63.63.63 0 0 1 .63.63v.87A.63.63 0 0 1 27 20zm0-.42a.21.21 0 0 0 .21-.21v-.87a.21.21 0 0 0-.21-.21.21.21 0 0 0-.21.21v.87a.21.21 0 0 0 .21.23zM29.84 20a.63.63 0 0 1-.62-.63v-.87a.63.63 0 1 1 1.25 0v.87a.63.63 0 0 1-.63.63zm0-.42a.21.21 0 0 0 .21-.21v-.87a.21.21 0 0 0-.42 0v.87a.21.21 0 0 0 .21.23zM31.51 20a.63.63 0 0 1-.63-.63v-.87a.63.63 0 0 1 .63-.63.63.63 0 0 1 .63.63v.87a.63.63 0 0 1-.63.63zm0-.42a.21.21 0 0 0 .21-.21v-.87a.21.21 0 0 0-.21-.21.21.21 0 0 0-.21.21v.87a.21.21 0 0 0 .21.23zM33.18 20a.63.63 0 0 1-.63-.63v-.87a.63.63 0 1 1 1.25 0v.87a.63.63 0 0 1-.62.63zm0-.42a.21.21 0 0 0 .21-.21v-.87a.21.21 0 0 0-.21-.21.21.21 0 0 0-.21.21v.87a.21.21 0 0 0 .21.23zM34.84 20a.63.63 0 0 1-.62-.63v-.87a.63.63 0 1 1 1.25 0v.87a.63.63 0 0 1-.63.63zm0-.42a.21.21 0 0 0 .21-.21v-.87a.2.2 0 0 0-.2-.21.21.21 0 0 0-.21.21v.87a.2.2 0 0 0 .2.23z" fill="#bfbfbf"/><path d="M33 7.5a5.5 5.5 0 1 1-5.5 5.5A5.51 5.51 0 0 1 33 7.5m0-1a6.5 6.5 0 1 0 6.5 6.5A6.5 6.5 0 0 0 33 6.5z" fill="red"/></svg>