<svg width="32" height="20" viewBox="0 0 32 20" fill="none" xmlns="http://www.w3.org/2000/svg"><g clip-path="url(#a)"><path d="M12.15 5.01l-4.19 10H5.23L3.17 7.03c-.13-.49-.23-.67-.61-.88C1.93 5.82.9 5.5 0 5.3l.06-.29h4.4c.56 0 1.06.37 1.19 1.02l1.09 5.78 2.69-6.8h2.72zm10.71 6.73c.01-2.64-3.65-2.78-3.62-3.96 0-.36.35-.74 1.1-.84.37-.05 1.39-.09 2.55.45l.45-2.12c-.62-.23-1.42-.44-2.42-.44-2.56 0-4.35 1.36-4.37 3.3-.02 1.44 1.28 2.24 2.26 2.72 1.01.49 1.35.8 1.34 1.24 0 .67-.8.97-1.55.98-1.3.02-2.05-.35-2.66-.63l-.47 2.19c.6.28 1.72.52 2.88.53 2.72 0 4.49-1.34 4.5-3.42h.01zM29.6 15h2.39l-2.08-9.99H27.7c-.5 0-.91.29-1.1.73L22.72 15h2.72l.54-1.49h3.32l.31 1.49h-.01zm-2.89-3.54l1.36-3.75.78 3.75h-2.14zM15.84 5.01l-2.14 10h-2.59l2.15-10h2.58z" fill="#1434CB"/></g><defs><clipPath id="a"><path fill="#fff" transform="translate(0 4.83)" d="M0 0h32v10.33H0z"/></clipPath></defs></svg>