<svg width="32" height="20" viewBox="0 0 32 20" fill="none" xmlns="http://www.w3.org/2000/svg"><path d="M19.928 2.141h-8.483v15.722h8.483V2.141z" fill="#FF5F00"/><path d="M11.984 10c-.003-3.068 1.363-5.965 3.703-7.859-4.21-3.413-10.303-2.66-13.613 1.683-3.31 4.341-2.58 10.626 1.632 14.039a9.465 9.465 0 0 0 11.981 0c-2.34-1.894-3.706-4.793-3.703-7.86v-.002z" fill="#EB001B"/><path d="M31.374 10c0 5.522-4.34 9.999-9.695 9.999a9.51 9.51 0 0 1-5.991-2.139c4.209-3.413 4.938-9.7 1.629-14.041a9.875 9.875 0 0 0-1.63-1.68c4.21-3.413 10.304-2.66 13.614 1.683A10.192 10.192 0 0 1 31.374 10zm-.926 6.197v-.322h.126v-.067h-.32v.066h.127v.323h.07-.003zm.622 0v-.39h-.097l-.113.268-.113-.267h-.097v.389h.07v-.292l.105.253h.073l.105-.253v.295h.07l-.003-.003z" fill="#F79E1B"/></svg>