<svg width="32" height="20" viewBox="0 0 32 20" fill="none" xmlns="http://www.w3.org/2000/svg"><g clip-path="url(#a)"><path d="M28.97 15.97c0 2.22-1.81 4.03-4.03 4.03H3V4.03C3 1.81 4.81 0 7.03 0h21.94v15.97z" fill="#fff"/><path d="M21.83 11.87h1.67s.16-.02.21-.02c.32-.06.59-.35.59-.75s-.27-.67-.59-.75c-.05-.02-.14-.02-.21-.02h-1.67v1.54z" fill="url(#b)"/><path d="M23.3 1.35c-1.59 0-2.89 1.29-2.89 2.89v3h4.08c.1 0 .21 0 .29.02.92.05 1.6.52 1.6 1.35 0 .65-.46 1.21-1.32 1.32v.03c.94.06 1.65.59 1.65 1.4 0 .87-.79 1.44-1.84 1.44h-4.48v5.87h4.24c1.59 0 2.89-1.29 2.89-2.89V1.35H23.3z" fill="url(#c)"/><path d="M24.08 8.79c0-.38-.27-.63-.59-.68-.03 0-.11-.02-.16-.02h-1.51v1.4h1.51s.14 0 .16-.02c.32-.05.59-.3.59-.68z" fill="url(#d)"/><path d="M7.33 1.35c-1.59 0-2.89 1.29-2.89 2.89v7.13c.81.4 1.65.65 2.49.65 1 0 1.54-.6 1.54-1.43V7.22h2.48v3.35c0 1.3-.81 2.37-3.56 2.37-1.67 0-2.97-.37-2.97-.37v6.08h4.25c1.59 0 2.89-1.29 2.89-2.89V1.35H7.33z" fill="url(#e)"/><path d="M15.32 1.35c-1.59 0-2.89 1.29-2.89 2.89v3.78c.73-.62 2-1.02 4.05-.92 1.1.05 2.27.35 2.27.35v1.22c-.59-.3-1.29-.57-2.19-.63-1.56-.11-2.49.65-2.49 1.98s.94 2.11 2.49 1.98c.9-.06 1.6-.35 2.19-.63v1.22s-1.16.3-2.27.35c-2.05.1-3.32-.3-4.05-.92v6.67h4.24c1.59 0 2.89-1.29 2.89-2.89V1.35h-4.24z" fill="url(#f)"/></g><defs><linearGradient id="b" x1="20.948" y1="11.7" x2="28.049" y2="11.7" gradientUnits="userSpaceOnUse"><stop stop-color="#007940"/><stop offset=".23" stop-color="#00873F"/><stop offset=".74" stop-color="#40A737"/><stop offset="1" stop-color="#5CB531"/></linearGradient><linearGradient id="c" x1="20.936" y1="10.603" x2="28.037" y2="10.603" gradientUnits="userSpaceOnUse"><stop stop-color="#007940"/><stop offset=".23" stop-color="#00873F"/><stop offset=".74" stop-color="#40A737"/><stop offset="1" stop-color="#5CB531"/></linearGradient><linearGradient id="d" x1="20.936" y1="9.393" x2="28.048" y2="9.393" gradientUnits="userSpaceOnUse"><stop stop-color="#007940"/><stop offset=".23" stop-color="#00873F"/><stop offset=".74" stop-color="#40A737"/><stop offset="1" stop-color="#5CB531"/></linearGradient><linearGradient id="e" x1="5.044" y1="10.592" x2="12.257" y2="10.592" gradientUnits="userSpaceOnUse"><stop stop-color="#1F286F"/><stop offset=".48" stop-color="#004E94"/><stop offset=".83" stop-color="#0066B1"/><stop offset="1" stop-color="#006FBC"/></linearGradient><linearGradient id="f" x1="12.951" y1="10.614" x2="19.962" y2="10.614" gradientUnits="userSpaceOnUse"><stop stop-color="#6C2C2F"/><stop offset=".17" stop-color="#882730"/><stop offset=".57" stop-color="#BE1833"/><stop offset=".86" stop-color="#DC0436"/><stop offset="1" stop-color="#E60039"/></linearGradient><clipPath id="a"><path fill="#fff" transform="translate(3)" d="M0 0h25.97v20H0z"/></clipPath></defs></svg>