<svg xmlns="http://www.w3.org/2000/svg" viewBox="0 0 41 26" width="41" height="26"><rect width="41" height="26" rx="3" ry="3" fill="#5dbba9"/><ellipse cx="20.5" cy="15" rx="6.5" ry="8" fill="#4c998b"/><path d="M8.37 5.38a.93.93 0 0 1 0-.13V5.1a1.15 1.15 0 0 1 0-.19v-.27-.27a1.15 1.15 0 0 1 0-.19v-.14a.74.74 0 0 1 0-.14.9.9 0 0 1 .36-.5 1.07 1.07 0 0 1 .61-.16 1.1 1.1 0 0 1 .59.15 1 1 0 0 1 .36.45v.05l-.44.19h-.06a.66.66 0 0 0-.15-.22.47.47 0 0 0-.28-.08.38.38 0 0 0-.26.08.4.4 0 0 0-.15.22.19.19 0 0 1 0 .07v1.02a.19.19 0 0 1 0 .07.4.4 0 0 0 .15.22.38.38 0 0 0 .26.08.47.47 0 0 0 .28-.08.66.66 0 0 0 .15-.22h.06l.44.19v.05a1 1 0 0 1-.36.45 1.1 1.1 0 0 1-.59.07 1.07 1.07 0 0 1-.61-.16.9.9 0 0 1-.36-.46zM12.27 6a.05.05 0 0 1-.06 0l-.46-1h-.37v1h-.51V3.32h1.08a1.12 1.12 0 0 1 .38.06.71.71 0 0 1 .29.18.7.7 0 0 1 .19.26.8.8 0 0 1 .07.34.86.86 0 0 1-.13.46.82.82 0 0 1-.36.3L12.87 6h-.6zm-.41-1.54a.4.4 0 0 0 .27-.09.3.3 0 0 0 .1-.25.3.3 0 0 0-.1-.24.4.4 0 0 0-.27-.09h-.48v.63zM13.37 3.32h1.74v.43H14v.54h1v.42h-1v.57h1.17V6h-1.76zM15.73 3.32h1a1.11 1.11 0 0 1 .6.15.85.85 0 0 1 .34.46v.12a1 1 0 0 0 0 .15 1.15 1.15 0 0 1 0 .2 2.27 2.27 0 0 1 0 .28 2.27 2.27 0 0 1 0 .28 1.15 1.15 0 0 1 0 .2 1 1 0 0 0 0 .15v.12a.85.85 0 0 1-.34.46 1.11 1.11 0 0 1-.6.15h-1zm.59 2.14h.3a.62.62 0 0 0 .38-.05.39.39 0 0 0 .18-.23.64.64 0 0 0 0-.07v-.1a.66.66 0 0 0 0-.15v-.44a.66.66 0 0 0 0-.15v-.1-.07a.39.39 0 0 0-.18-.23.62.62 0 0 0-.33-.07h-.3zM18.36 3.32h.51V6h-.47zM20.17 6V3.83h-.69v-.51h2v.44h-.69V6zM23 5.38V5.1v-.73V3.9a1 1 0 0 1 .36-.5 1.09 1.09 0 0 1 .61-.16 1.1 1.1 0 0 1 .59.15 1 1 0 0 1 .36.45v.05l-.44.19h-.05a.69.69 0 0 0-.16-.22.46.46 0 0 0-.27-.08.4.4 0 0 0-.27.08.44.44 0 0 0-.14.22.19.19 0 0 0 0 .07v.25a1.63 1.63 0 0 0 0 .24 1.63 1.63 0 0 0 0 .24V5.11a.19.19 0 0 0 0 .07.44.44 0 0 0 .14.22.4.4 0 0 0 .27.08.46.46 0 0 0 .27-.08.69.69 0 0 0 .16-.22h.05l.44.19v.05a1 1 0 0 1-.36.45 1.1 1.1 0 0 1-.59.15 1.09 1.09 0 0 1-.61-.16 1 1 0 0 1-.36-.48zM26.09 3.32H26.69L27.61 6h-.52A.05.05 0 0 1 27 6l-.15-.48h-.95l-.15.48H25.18zM26.7 5l-.31-1-.31 1zM29.54 6a.05.05 0 0 1-.06 0L29 5h-.36v1h-.51V3.32h1.09a1.16 1.16 0 0 1 .38.06.79.79 0 0 1 .29.18.83.83 0 0 1 .19.26 1 1 0 0 1 .06.34.78.78 0 0 1-.13.46.79.79 0 0 1-.35.3L30.13 6h-.59zm-.41-1.54a.36.36 0 0 0 .26-.09.3.3 0 0 0 .1-.25.3.3 0 0 0-.1-.24.36.36 0 0 0-.26-.09h-.48v.63zM30.63 3.32h1a1.11 1.11 0 0 1 .6.15.85.85 0 0 1 .34.46v.12a1 1 0 0 0 0 .15 1.15 1.15 0 0 1 0 .2 2.27 2.27 0 0 1 0 .28 2.27 2.27 0 0 1 0 .28 1.15 1.15 0 0 1 0 .2 1 1 0 0 0 0 .15v.12a.85.85 0 0 1-.34.46 1.11 1.11 0 0 1-.6.15h-1zm.59 2.14h.3a.62.62 0 0 0 .33-.07.39.39 0 0 0 .18-.23.64.64 0 0 0 0-.07v-.1a.66.66 0 0 0 0-.15v-.42a.66.66 0 0 0 0-.15v-.1-.07a.39.39 0 0 0-.18-.23.62.62 0 0 0-.33-.07h-.3z" fill="#515151"/><path d="M30.71 14v-1.79h-.23v-.45h.67V14zM31.94 12.41a.67.67 0 0 1 .67-.67.68.68 0 0 1 .68.67.63.63 0 0 1-.17.4l-.62.74h.79V14h-1.35v-.42l.81-1a.28.28 0 0 0 .09-.18.23.23 0 1 0-.45 0h-.45zM34.82 12.88a.63.63 0 0 1 .17.45.67.67 0 1 1-1.34 0h.45a.22.22 0 1 0 .44 0 .21.21 0 0 0-.22-.23h-.22v-.45h.22a.21.21 0 0 0 .22-.22.22.22 0 0 0-.22-.23.22.22 0 0 0-.22.23h-.45a.68.68 0 0 1 .67-.67.66.66 0 0 1 .67.67.68.68 0 0 1-.17.45zM36.33 13.73h-.81v-.41l.69-1.56h.55v1.54h.18v.43h-.18V14h-.43zm0-1.32l-.33.89h.37z" fill="#fff"/><path d="M6.15 22a.63.63 0 0 1-.62-.63v-.87a.63.63 0 1 1 1.25 0v.87a.63.63 0 0 1-.63.63zm0-.42a.21.21 0 0 0 .21-.21v-.87a.2.2 0 0 0-.2-.21.21.21 0 0 0-.21.21v.87a.2.2 0 0 0 .2.23zM7.82 22a.63.63 0 0 1-.62-.63v-.87a.63.63 0 1 1 1.25 0v.87a.63.63 0 0 1-.63.63zm0-.42a.21.21 0 0 0 .18-.19v-.87a.21.21 0 1 0-.42 0v.87a.21.21 0 0 0 .24.21zM9.49 22a.63.63 0 0 1-.63-.63v-.87a.63.63 0 0 1 .63-.63.63.63 0 0 1 .63.63v.87a.63.63 0 0 1-.63.63zm0-.42a.21.21 0 0 0 .21-.21v-.87a.21.21 0 0 0-.21-.21.21.21 0 0 0-.21.21v.87a.21.21 0 0 0 .21.23zM11.16 22a.63.63 0 0 1-.63-.63v-.87a.63.63 0 0 1 .63-.63.63.63 0 0 1 .63.63v.87a.63.63 0 0 1-.63.63zm0-.42a.21.21 0 0 0 .21-.21v-.87a.21.21 0 0 0-.21-.21.21.21 0 0 0-.21.21v.87a.21.21 0 0 0 .21.23zM14.05 22a.63.63 0 0 1-.63-.63v-.87a.63.63 0 0 1 .63-.63.63.63 0 0 1 .63.63v.87a.63.63 0 0 1-.63.63zm0-.42a.21.21 0 0 0 .21-.21v-.87a.21.21 0 0 0-.21-.21.21.21 0 0 0-.21.21v.87a.21.21 0 0 0 .21.23zM15.72 22a.63.63 0 0 1-.63-.63v-.87a.63.63 0 0 1 .63-.63.63.63 0 0 1 .63.63v.87a.63.63 0 0 1-.63.63zm0-.42a.21.21 0 0 0 .21-.21v-.87a.21.21 0 0 0-.21-.21.21.21 0 0 0-.21.21v.87a.21.21 0 0 0 .21.23zM17.38 22a.63.63 0 0 1-.62-.63v-.87a.63.63 0 1 1 1.25 0v.87a.63.63 0 0 1-.63.63zm0-.42a.21.21 0 0 0 .21-.21v-.87a.2.2 0 0 0-.2-.21.21.21 0 0 0-.21.21v.87a.2.2 0 0 0 .2.23zM19.05 22a.63.63 0 0 1-.62-.63v-.87a.63.63 0 1 1 1.25 0v.87a.63.63 0 0 1-.63.63zm0-.42a.21.21 0 0 0 .21-.21v-.87a.21.21 0 0 0-.21-.21.21.21 0 0 0-.21.21v.87a.21.21 0 0 0 .21.23zM21.94 22a.63.63 0 0 1-.62-.63v-.87a.63.63 0 1 1 1.25 0v.87a.63.63 0 0 1-.63.63zm0-.42a.21.21 0 0 0 .21-.21v-.87a.2.2 0 0 0-.2-.21.21.21 0 0 0-.21.21v.87a.2.2 0 0 0 .2.23zM23.61 22a.63.63 0 0 1-.62-.63v-.87a.63.63 0 1 1 1.25 0v.87a.63.63 0 0 1-.63.63zm0-.42a.21.21 0 0 0 .21-.21v-.87a.21.21 0 0 0-.21-.21.21.21 0 0 0-.21.21v.87a.21.21 0 0 0 .21.23zM25.28 22a.63.63 0 0 1-.62-.63v-.87a.63.63 0 1 1 1.25 0v.87a.63.63 0 0 1-.63.63zm0-.42a.21.21 0 0 0 .21-.21v-.87a.21.21 0 1 0-.42 0v.87a.21.21 0 0 0 .21.23zM27 22a.63.63 0 0 1-.63-.63v-.87a.63.63 0 0 1 .63-.63.63.63 0 0 1 .63.63v.87A.63.63 0 0 1 27 22zm0-.42a.21.21 0 0 0 .21-.21v-.87a.21.21 0 0 0-.21-.21.21.21 0 0 0-.21.21v.87a.21.21 0 0 0 .21.23zM29.84 22a.63.63 0 0 1-.62-.63v-.87a.63.63 0 1 1 1.25 0v.87a.63.63 0 0 1-.63.63zm0-.42a.21.21 0 0 0 .21-.21v-.87a.21.21 0 0 0-.42 0v.87a.21.21 0 0 0 .21.23zM31.51 22a.63.63 0 0 1-.63-.63v-.87a.63.63 0 0 1 .63-.63.63.63 0 0 1 .63.63v.87a.63.63 0 0 1-.63.63zm0-.42a.21.21 0 0 0 .21-.21v-.87a.21.21 0 0 0-.21-.21.21.21 0 0 0-.21.21v.87a.21.21 0 0 0 .21.23zM33.18 22a.63.63 0 0 1-.63-.63v-.87a.63.63 0 1 1 1.25 0v.87a.63.63 0 0 1-.62.63zm0-.42a.21.21 0 0 0 .21-.21v-.87a.21.21 0 0 0-.21-.21.21.21 0 0 0-.21.21v.87a.21.21 0 0 0 .21.23zM34.84 22a.63.63 0 0 1-.62-.63v-.87a.63.63 0 1 1 1.25 0v.87a.63.63 0 0 1-.63.63zm0-.42a.21.21 0 0 0 .21-.21v-.87a.2.2 0 0 0-.2-.21.21.21 0 0 0-.21.21v.87a.2.2 0 0 0 .2.23z" fill="#a3eee5"/><path d="M33 7.5a5.5 5.5 0 1 1-5.5 5.5A5.51 5.51 0 0 1 33 7.5m0-1a6.5 6.5 0 1 0 6.5 6.5A6.5 6.5 0 0 0 33 6.5z" fill="red"/></svg>